<svg width="259" height="47" viewBox="0 0 259 47" fill="none" xmlns="http://www.w3.org/2000/svg">
<path d="M74.33 16.645C71.9267 15.0583 69.2783 14.265 66.385 14.265C63.4917 14.265 61.2283 15.1517 59.595 16.925C57.9617 18.6983 57.145 20.985 57.145 23.785C57.145 26.585 57.9617 28.8717 59.595 30.645C61.2283 32.4183 63.4917 33.305 66.385 33.305C69.2783 33.305 71.9267 32.5117 74.33 30.925H74.505V34.075C71.985 35.5917 69.22 36.35 66.21 36.35C62.64 36.35 59.7 35.2183 57.39 32.955C55.1033 30.6683 53.96 27.6117 53.96 23.785C53.96 19.9583 55.1033 16.9133 57.39 14.65C59.7 12.3633 62.64 11.22 66.21 11.22C69.22 11.22 71.985 11.9783 74.505 13.495V16.645H74.33ZM81.7935 14.72C84.0101 12.3867 86.9618 11.22 90.6485 11.22C94.3351 11.22 97.2868 12.3867 99.5035 14.72C101.72 17.0533 102.863 20.075 102.933 23.785C102.863 27.495 101.72 30.5167 99.5035 32.85C97.2868 35.1833 94.3351 36.35 90.6485 36.35C86.9618 36.35 84.0101 35.1833 81.7935 32.85C79.5768 30.5167 78.4335 27.495 78.3635 23.785C78.4335 20.075 79.5768 17.0533 81.7935 14.72ZM81.5485 23.785C81.5485 26.5617 82.3535 28.86 83.9635 30.68C85.5968 32.4767 87.8135 33.375 90.6135 33.375C93.4368 33.375 95.6651 32.4767 97.2985 30.68C98.9318 28.86 99.7485 26.5617 99.7485 23.785C99.7485 21.0083 98.9318 18.7217 97.2985 16.925C95.6651 15.105 93.4368 14.195 90.6135 14.195C87.8135 14.195 85.5968 15.105 83.9635 16.925C82.3535 18.7217 81.5485 21.0083 81.5485 23.785ZM116.813 11.57C118.819 11.57 120.628 11.9317 122.238 12.655C123.871 13.355 125.178 14.3 126.158 15.49C128.164 17.8933 129.168 20.6583 129.168 23.785C129.168 26.2817 128.514 28.5567 127.208 30.61C125.784 32.8733 123.813 34.4367 121.293 35.3C119.916 35.7667 118.423 36 116.813 36H108.203V11.57H116.813ZM116.428 33.025C119.321 33.025 121.643 32.1733 123.393 30.47C125.143 28.7667 126.018 26.5383 126.018 23.785C126.018 21.0317 125.143 18.8033 123.393 17.1C121.643 15.3967 119.321 14.545 116.428 14.545H111.388V33.025H116.428ZM137.638 11.57V36H134.453V11.57H137.638ZM162.563 11.57H165.748V36H161.828L147.688 15.875H147.618V36H144.433V11.57H148.353L162.458 31.66H162.563V11.57ZM183.484 22.595H192.689V33.655C189.679 35.4517 186.564 36.35 183.344 36.35C179.68 36.35 176.717 35.1833 174.454 32.85C172.19 30.5167 171.059 27.495 171.059 23.785C171.059 20.075 172.225 17.0533 174.559 14.72C176.892 12.3867 179.692 11.22 182.959 11.22C186.249 11.22 189.364 12.1183 192.304 13.915V17.205H192.164C189.294 15.2683 186.459 14.3 183.659 14.3C180.882 14.3 178.619 15.14 176.869 16.82C175.119 18.5 174.244 20.7867 174.244 23.68C174.244 26.55 175.095 28.8833 176.799 30.68C178.502 32.4533 180.824 33.34 183.764 33.34C185.957 33.34 187.999 32.8267 189.889 31.8V25.465H183.484V22.595ZM201.868 28.9785H197.454L197.435 28.4512H201.067C201.927 28.4512 202.646 28.3405 203.226 28.1191C203.812 27.8978 204.251 27.5592 204.544 27.1035C204.837 26.6478 204.983 26.0749 204.983 25.3848C204.983 24.7012 204.827 24.1315 204.515 23.6758C204.209 23.2201 203.75 22.8783 203.138 22.6504C202.532 22.4225 201.777 22.3086 200.872 22.3086H197.659V36H197.132V21.7812H200.872C201.588 21.7812 202.233 21.8529 202.806 21.9961C203.379 22.1393 203.867 22.3607 204.271 22.6602C204.674 22.9596 204.983 23.3405 205.198 23.8027C205.413 24.2585 205.521 24.7988 205.521 25.4238C205.521 26.0098 205.41 26.5371 205.188 27.0059C204.974 27.4746 204.658 27.8555 204.241 28.1484C203.825 28.4414 203.31 28.6204 202.698 28.6855L201.868 28.9785ZM201.771 36H197.435L197.601 35.4727H201.771C202.571 35.4727 203.258 35.3392 203.831 35.0723C204.41 34.8053 204.856 34.4212 205.169 33.9199C205.481 33.4121 205.638 32.8066 205.638 32.1035C205.638 31.5566 205.498 31.0456 205.218 30.5703C204.944 30.0951 204.528 29.7109 203.968 29.418C203.408 29.125 202.708 28.9785 201.868 28.9785H199.563L199.583 28.4512H202.952L202.991 28.6367C203.59 28.7083 204.127 28.9069 204.603 29.2324C205.084 29.5579 205.465 29.9714 205.745 30.4727C206.025 30.9674 206.165 31.5046 206.165 32.084C206.165 32.9238 205.976 33.6367 205.599 34.2227C205.228 34.8021 204.713 35.2448 204.056 35.5508C203.398 35.8503 202.636 36 201.771 36ZM219.271 27.8262V29.9551C219.271 30.8796 219.144 31.7259 218.89 32.4941C218.642 33.2559 218.284 33.9134 217.815 34.4668C217.353 35.0202 216.793 35.4466 216.136 35.7461C215.478 36.0456 214.739 36.1953 213.919 36.1953C213.105 36.1953 212.366 36.0456 211.702 35.7461C211.045 35.4466 210.478 35.0202 210.003 34.4668C209.534 33.9134 209.173 33.2559 208.919 32.4941C208.672 31.7259 208.548 30.8796 208.548 29.9551V27.8262C208.548 26.8952 208.672 26.0488 208.919 25.2871C209.173 24.5254 209.534 23.8678 210.003 23.3145C210.472 22.7611 211.035 22.3346 211.692 22.0352C212.35 21.7357 213.086 21.5859 213.899 21.5859C214.72 21.5859 215.459 21.7357 216.116 22.0352C216.774 22.3346 217.337 22.7611 217.806 23.3145C218.281 23.8678 218.642 24.5254 218.89 25.2871C219.144 26.0488 219.271 26.8952 219.271 27.8262ZM218.743 29.9551V27.8066C218.743 26.9733 218.636 26.2116 218.421 25.5215C218.206 24.8249 217.89 24.2227 217.474 23.7148C217.057 23.207 216.549 22.8132 215.95 22.5332C215.351 22.2533 214.668 22.1133 213.899 22.1133C213.138 22.1133 212.457 22.2533 211.858 22.5332C211.266 22.8132 210.761 23.207 210.345 23.7148C209.935 24.2227 209.622 24.8249 209.407 25.5215C209.192 26.2116 209.085 26.9733 209.085 27.8066V29.9551C209.085 30.7949 209.192 31.5632 209.407 32.2598C209.629 32.9564 209.944 33.5586 210.354 34.0664C210.771 34.5742 211.279 34.9681 211.878 35.248C212.477 35.528 213.157 35.668 213.919 35.668C214.687 35.668 215.368 35.528 215.96 35.248C216.559 34.9681 217.063 34.5742 217.474 34.0664C217.89 33.5586 218.206 32.9564 218.421 32.2598C218.636 31.5632 218.743 30.7949 218.743 29.9551ZM232.591 27.8262V29.9551C232.591 30.8796 232.464 31.7259 232.21 32.4941C231.963 33.2559 231.604 33.9134 231.136 34.4668C230.674 35.0202 230.114 35.4466 229.456 35.7461C228.799 36.0456 228.06 36.1953 227.239 36.1953C226.425 36.1953 225.687 36.0456 225.022 35.7461C224.365 35.4466 223.799 35.0202 223.323 34.4668C222.854 33.9134 222.493 33.2559 222.239 32.4941C221.992 31.7259 221.868 30.8796 221.868 29.9551V27.8262C221.868 26.8952 221.992 26.0488 222.239 25.2871C222.493 24.5254 222.854 23.8678 223.323 23.3145C223.792 22.7611 224.355 22.3346 225.013 22.0352C225.67 21.7357 226.406 21.5859 227.22 21.5859C228.04 21.5859 228.779 21.7357 229.437 22.0352C230.094 22.3346 230.657 22.7611 231.126 23.3145C231.601 23.8678 231.963 24.5254 232.21 25.2871C232.464 26.0488 232.591 26.8952 232.591 27.8262ZM232.063 29.9551V27.8066C232.063 26.9733 231.956 26.2116 231.741 25.5215C231.526 24.8249 231.211 24.2227 230.794 23.7148C230.377 23.207 229.869 22.8132 229.271 22.5332C228.672 22.2533 227.988 22.1133 227.22 22.1133C226.458 22.1133 225.778 22.2533 225.179 22.5332C224.586 22.8132 224.082 23.207 223.665 23.7148C223.255 24.2227 222.942 24.8249 222.728 25.5215C222.513 26.2116 222.405 26.9733 222.405 27.8066V29.9551C222.405 30.7949 222.513 31.5632 222.728 32.2598C222.949 32.9564 223.265 33.5586 223.675 34.0664C224.091 34.5742 224.599 34.9681 225.198 35.248C225.797 35.528 226.478 35.668 227.239 35.668C228.007 35.668 228.688 35.528 229.28 35.248C229.879 34.9681 230.384 34.5742 230.794 34.0664C231.211 33.5586 231.526 32.9564 231.741 32.2598C231.956 31.5632 232.063 30.7949 232.063 29.9551ZM236.37 21.7812V36H235.843V21.7812H236.37ZM245.374 21.7812L239.017 28.1777L236.155 30.8145L236.233 30.1309L238.694 27.7285L244.612 21.7812H245.374ZM245.179 36L238.479 28.334L238.802 27.875L245.862 36H245.179ZM257.054 32.5918C257.054 32.1426 256.976 31.7422 256.819 31.3906C256.663 31.0391 256.412 30.7233 256.067 30.4434C255.722 30.1634 255.27 29.9062 254.71 29.6719C254.157 29.4375 253.476 29.2096 252.669 28.9883C251.946 28.793 251.295 28.5846 250.716 28.3633C250.136 28.1354 249.642 27.875 249.231 27.582C248.828 27.2891 248.519 26.9408 248.304 26.5371C248.089 26.127 247.981 25.6354 247.981 25.0625C247.981 24.5221 248.099 24.0371 248.333 23.6074C248.574 23.1777 248.906 22.8132 249.329 22.5137C249.759 22.2142 250.26 21.9863 250.833 21.8301C251.406 21.6673 252.028 21.5859 252.698 21.5859C253.623 21.5859 254.44 21.7617 255.149 22.1133C255.859 22.4648 256.416 22.9564 256.819 23.5879C257.229 24.2129 257.435 24.9453 257.435 25.7852H256.907C256.907 25.082 256.731 24.4538 256.38 23.9004C256.028 23.347 255.537 22.9108 254.905 22.5918C254.28 22.2728 253.545 22.1133 252.698 22.1133C251.806 22.1133 251.048 22.25 250.423 22.5234C249.798 22.7969 249.323 23.1582 248.997 23.6074C248.672 24.0501 248.509 24.5286 248.509 25.043C248.509 25.4206 248.574 25.7721 248.704 26.0977C248.841 26.4232 249.069 26.7259 249.388 27.0059C249.707 27.2793 250.146 27.5397 250.706 27.7871C251.266 28.028 251.969 28.2591 252.815 28.4805C253.519 28.6628 254.16 28.8678 254.739 29.0957C255.325 29.3236 255.83 29.5938 256.253 29.9062C256.683 30.2188 257.011 30.5931 257.239 31.0293C257.474 31.459 257.591 31.9733 257.591 32.5723C257.591 33.1517 257.464 33.666 257.21 34.1152C256.963 34.5645 256.618 34.9453 256.175 35.2578C255.732 35.5638 255.218 35.7982 254.632 35.9609C254.052 36.1172 253.431 36.1953 252.767 36.1953C252.161 36.1953 251.549 36.1237 250.931 35.9805C250.312 35.8372 249.746 35.6061 249.231 35.2871C248.717 34.9616 248.304 34.5286 247.991 33.9883C247.679 33.4479 247.522 32.7806 247.522 31.9863H248.05C248.05 32.696 248.196 33.2884 248.489 33.7637C248.782 34.2389 249.163 34.6165 249.632 34.8965C250.107 35.1699 250.618 35.3685 251.165 35.4922C251.718 35.6094 252.252 35.668 252.767 35.668C253.6 35.668 254.339 35.5378 254.983 35.2773C255.628 35.0169 256.132 34.6556 256.497 34.1934C256.868 33.7311 257.054 33.1973 257.054 32.5918Z" fill="white"/>
<path d="M39.1573 4.68086C32.591 -0.174586 26.9329 -1.06501 16.7416 1.145C13.9734 1.74488 10.8411 2.66037 8.58365 4.90406C7.11364 6.38117 5.97949 8.12443 5.25046 10.0273C4.94098 10.8652 4.68881 11.7208 4.49549 12.589L4.42966 12.8599C4.24499 13.4922 3.99839 14.1069 3.69303 14.6964C3.24942 15.4095 3.0132 16.2198 3.00806 17.0458C3.17656 17.7452 3.60684 18.3644 4.2205 18.7906C4.62799 19.1423 4.89631 19.3897 4.89881 19.6153C4.86326 19.7425 4.80914 19.8646 4.73798 19.9779C4.60475 20.2002 4.50891 20.4406 4.45383 20.6905C4.33994 21.6297 3.93155 22.5159 3.28054 23.2365C0.663155 25.8866 -0.0843132 26.8006 0.00734959 27.7466C0.150074 28.404 0.594824 28.9685 1.2223 29.2886C1.49702 29.469 1.78716 29.6277 2.08976 29.7632C2.44808 29.9355 3.04889 30.2236 3.08972 30.4296C3.14408 30.695 3.11184 30.9696 2.99722 31.2174C2.87473 31.4634 2.74723 31.6748 2.6364 31.8596C2.31142 32.4 1.82144 33.2168 2.58974 33.8261C2.76973 33.9757 3.07805 34.2035 3.35887 34.4056C3.14984 34.7498 3.05659 35.1454 3.09138 35.5404C3.13527 35.8468 3.31238 36.1224 3.58053 36.3016C3.76636 36.4261 3.96468 36.5365 4.16384 36.6407C4.65215 36.903 4.84214 37.0252 4.90797 37.2672C4.96835 37.5602 4.94419 37.863 4.83798 38.1443C4.56178 39.0648 4.60883 40.0444 4.97214 40.9377C5.40007 42.4257 6.99443 43.3367 8.59698 43.0091C10.9701 42.4701 13.3104 41.8105 15.6075 41.0333C16.7575 41.6778 17.8508 43.2441 18.6391 45.3985C18.9833 46.353 19.9349 46.9965 21.0073 47H37.8116C38.6767 46.9994 39.4801 46.5785 39.9354 45.8872C40.3908 45.1958 40.4334 44.3323 40.0481 43.6043C39.0075 41.4288 38.3598 39.1055 38.1316 36.7299C37.8359 34.3877 38.2098 32.0137 39.2148 29.8524C39.814 28.6831 40.5529 27.5817 41.4173 26.5695C43.0655 24.4762 44.9338 22.1057 44.9946 18.0686C45.0442 15.8236 44.7516 13.5836 44.1255 11.4166C43.2866 8.72618 41.5437 6.36317 39.1573 4.68086V4.68086ZM40.079 25.6376C39.139 26.7445 38.3372 27.949 37.6891 29.2275C36.5646 31.6441 36.1458 34.2987 36.4758 36.9179C36.7256 39.4743 37.4298 41.9732 38.559 44.3107C38.6832 44.5529 38.6665 44.838 38.5148 45.0659C38.3631 45.2938 38.0976 45.4327 37.8116 45.4337H21.0073C20.6469 45.4308 20.3282 45.2131 20.214 44.8918C19.6712 43.2293 18.7361 41.7034 17.4783 40.4279L18.1007 40.2227C18.7166 40.0191 19.184 39.8656 19.414 39.7967C22.9789 38.7426 24.7621 37.2124 24.713 35.2608C24.7139 35.0513 24.6231 34.8507 24.4619 34.7061C24.3006 34.5615 24.0831 34.4857 23.8605 34.4964C23.6395 34.5012 23.4295 34.5882 23.2768 34.7385C23.1241 34.8888 23.0412 35.0899 23.0464 35.2976C23.0664 36.105 22.3664 37.2821 18.9115 38.3033C18.6682 38.3753 18.1866 38.5343 17.5483 38.745C16.9508 38.9423 16.215 39.1866 15.4025 39.4498H15.3959C13.0572 40.2474 10.6744 40.9255 8.25783 41.4812C7.47866 41.6231 6.72043 41.1578 6.5454 40.4303C6.28519 39.8182 6.25579 39.1408 6.46207 38.5108C6.63418 37.9842 6.6563 37.4245 6.52624 36.8874C6.28757 36.1691 5.72822 35.584 4.9938 35.2843C4.93381 35.2522 4.87381 35.2208 4.81464 35.1879C4.90334 35.0159 5.01026 34.8527 5.1338 34.7008C5.27189 34.5346 5.33277 34.323 5.30265 34.1139C5.27253 33.9049 5.15397 33.7161 4.9738 33.5904C4.77381 33.451 4.29883 33.115 3.95718 32.8581C3.99968 32.7845 4.04718 32.7015 4.09134 32.631C4.21884 32.4188 4.3655 32.1729 4.50799 31.8925C4.7738 31.345 4.85212 30.7334 4.73215 30.1422C4.53799 29.1813 3.56553 28.7138 2.85306 28.3715C2.63471 28.2746 2.42417 28.1628 2.22309 28.0371C2.02782 27.9096 1.84363 27.7676 1.67228 27.6127C1.68644 27.16 3.5197 25.3016 4.50549 24.3031C5.38115 23.3602 5.93661 22.1926 6.10042 20.9505C6.1358 20.8603 6.17814 20.7726 6.22708 20.6882C6.43515 20.3573 6.55228 19.9829 6.5679 19.5988C6.48435 18.8076 6.0384 18.0897 5.34629 17.6324C5.01297 17.3426 4.69298 17.0685 4.65715 16.8273C4.75827 16.3054 4.94611 15.8017 5.21379 15.3347C5.5626 14.6539 5.84163 13.9436 6.04709 13.2131L6.11459 12.9398C6.29288 12.136 6.52472 11.3434 6.80873 10.5669C7.4613 8.86336 8.47602 7.30246 9.7911 5.9793C11.7385 4.0426 14.4576 3.24381 17.1116 2.66898C27.9837 0.313308 32.7185 1.91404 38.1291 5.91352C40.2449 7.38505 41.7887 9.46815 42.5239 11.8434C43.106 13.8642 43.3773 15.9528 43.3297 18.0459C43.2772 21.577 41.7239 23.5498 40.079 25.6376V25.6376Z" fill="#F8F2EE"/>
<path d="M33.3985 13.1528C34.6007 14.3523 36.5654 14.5225 37.9806 13.5496C39.3958 12.5767 39.8183 10.7656 38.9661 9.32549C38.1138 7.8854 36.2537 7.26739 34.6277 7.88412C33.0018 8.50086 32.1192 10.1592 32.5694 11.7518C31.542 12.5892 30.7031 13.6111 30.102 14.7575C29.5688 14.3821 28.989 14.0692 28.3754 13.8256C27.6696 12.5631 27.7971 10.8363 28.1204 9.39378C28.1771 9.39378 28.2304 9.40944 28.2871 9.40944C29.9635 9.42192 31.3932 8.27105 31.6376 6.71231C31.8821 5.15357 30.8664 3.66402 29.2574 3.22145C27.6484 2.77889 25.9385 3.51877 25.2501 4.9554C24.5617 6.39203 25.1056 8.08573 26.5246 8.92468C26.1653 10.2962 26.1085 11.7223 26.358 13.1152C25.6497 12.9064 24.8719 12.7111 24.0247 12.5295C23.2581 12.3674 22.529 12.2295 21.8432 12.1128C21.1432 11.5382 20.6159 10.801 20.3141 9.97487C21.8849 9.41225 22.7665 7.8405 22.3726 6.30462C21.9788 4.76875 20.4321 3.74695 18.7611 3.91859C17.09 4.09022 15.8147 5.40186 15.7832 6.98143C15.7516 8.56101 16.9736 9.9167 18.6366 10.1472C18.804 10.6976 19.0419 11.227 19.3449 11.7236C17.6967 11.4965 16.1417 11.332 14.891 11.2201C14.609 9.658 13.1347 8.53695 11.4503 8.60383C9.76597 8.67072 8.39752 9.90465 8.25675 11.4835C8.11598 13.0623 9.24684 14.4931 10.8959 14.8225C12.5449 15.1518 14.1972 14.277 14.7518 12.7808C16.5267 12.9375 18.9183 13.2037 21.3049 13.611L21.4382 13.6345C20.5971 14.2635 19.8516 14.9979 19.2225 15.8171C18.9198 15.7273 18.6048 15.6793 18.2875 15.6745C16.6938 15.669 15.3173 16.7207 14.9976 18.188C14.6778 19.6553 15.5037 21.1308 16.9714 21.7145C18.439 22.2982 20.141 21.828 21.0391 20.5907C21.9372 19.3534 21.782 17.6926 20.6682 16.6213C21.3614 15.7081 22.249 14.9403 23.2748 14.3667C23.4727 14.2659 23.6786 14.1795 23.8906 14.1083C25.0685 14.3547 26.2241 14.687 27.3471 15.1021C27.3728 15.1156 27.3992 15.1279 27.4263 15.1389L27.4404 15.1451L27.4538 15.1514C28.1578 15.3926 28.8065 15.7575 29.3653 16.2266C29.4681 16.3229 29.5567 16.4317 29.6287 16.5501C30.012 17.157 29.9278 18.0568 29.362 19.3858C29.0529 20.1188 28.6462 20.8824 28.2154 21.6906C26.7455 24.448 25.0805 27.5735 27.7663 29.6003C30.9003 31.9567 31.0111 40.0943 30.7895 43.0295C30.7734 43.2368 30.8457 43.4416 30.9905 43.5988C31.1352 43.756 31.3405 43.8526 31.5611 43.8674H31.6203C32.0583 43.8685 32.4225 43.5506 32.4536 43.1399C32.4894 42.6755 33.2677 31.7273 28.8112 28.377C27.2904 27.2313 28.1787 25.264 29.7078 22.3938C30.0795 21.6976 30.4495 20.9842 30.7628 20.2872C31.5988 20.0967 32.4797 20.3348 33.0802 20.9137C32.0854 22.2159 32.2764 24.0101 33.5259 25.1013C34.7754 26.1925 36.6934 26.2401 38.0024 25.2123C39.3114 24.1845 39.6027 22.4022 38.6824 21.0526C37.762 19.7029 35.9172 19.2072 34.3768 19.8956C33.5661 19.1533 32.4991 18.7087 31.3694 18.6426C31.614 17.819 31.5752 16.9438 31.2586 16.1421C31.737 15.0137 32.4666 13.9945 33.3985 13.1528V13.1528ZM35.7867 9.40944C36.7072 9.40944 37.4533 10.1107 37.4533 10.9757C37.4533 11.8407 36.7072 12.542 35.7867 12.542C34.8663 12.542 34.1201 11.8407 34.1201 10.9757C34.1201 10.1107 34.8663 9.40944 35.7867 9.40944ZM28.2871 4.71063C29.2075 4.71063 29.9537 5.41187 29.9537 6.2769C29.9537 7.14193 29.2075 7.84317 28.2871 7.84317C27.3666 7.84317 26.6205 7.14193 26.6205 6.2769C26.6205 5.41187 27.3666 4.71063 28.2871 4.71063ZM17.4542 7.06003C17.4542 6.19501 18.2004 5.49376 19.1208 5.49376C20.0412 5.49376 20.7874 6.19501 20.7874 7.06003C20.7874 7.92506 20.0412 8.62631 19.1208 8.62631C18.2004 8.62631 17.4542 7.92506 17.4542 7.06003ZM11.6211 13.3251C10.7007 13.3251 9.95451 12.6239 9.95451 11.7589C9.95451 10.8938 10.7007 10.1926 11.6211 10.1926C12.5415 10.1926 13.2877 10.8938 13.2877 11.7589C13.2877 12.6239 12.5415 13.3251 11.6211 13.3251ZM18.2875 20.3734C17.3671 20.3734 16.6209 19.6721 16.6209 18.8071C16.6209 17.9421 17.3671 17.2408 18.2875 17.2408C19.2079 17.2408 19.9541 17.9421 19.9541 18.8071C19.9541 19.6721 19.2079 20.3734 18.2875 20.3734ZM37.4533 22.7228C37.4533 23.5878 36.7072 24.289 35.7867 24.289C34.8663 24.289 34.1201 23.5878 34.1201 22.7228C34.1201 21.8577 34.8663 21.1565 35.7867 21.1565C36.7072 21.1565 37.4533 21.8577 37.4533 22.7228Z" fill="#F8F2EE"/>
</svg>
